<svg width="10" height="18" viewBox="0 0 10 18" fill="none" xmlns="http://www.w3.org/2000/svg">
<path fill-rule="evenodd" clip-rule="evenodd" d="M7.58485 8.99877L1.22293 15.3617C0.831059 15.7535 0.831058 16.3873 1.22106 16.7773C1.6148 17.171 2.24574 17.1673 2.63667 16.7754L9.70443 9.70763H9.70537C9.70537 9.7067 9.70631 9.7067 9.70631 9.7067C9.90224 9.50982 9.99975 9.25389 9.99975 8.99889C9.99882 8.74295 9.90132 8.48702 9.70631 8.29202L9.70537 8.29108C9.70537 8.29108 9.70443 8.29108 9.70443 8.29014L2.63667 1.22238C2.24574 0.831446 1.61199 0.83051 1.22106 1.22144C0.828248 1.61425 0.831056 2.24519 1.22293 2.63706L7.58485 8.99877Z" fill="black" fill-opacity="0.25"/>
</svg>
