<svg width="135" height="14" viewBox="0 0 135 14" fill="none" xmlns="http://www.w3.org/2000/svg">
<g clip-path="url(#clip0_9560_236734)">
<path d="M2.82463 13.912H0.773242C0.724631 13.912 0.685743 13.9023 0.646854 13.8829C0.607965 13.8634 0.569076 13.8343 0.549632 13.7954C0.520465 13.7565 0.510742 13.7176 0.510742 13.669C0.510742 13.6204 0.510742 13.5815 0.530186 13.5426L7.18991 0.252318C7.20935 0.21343 7.23852 0.184263 7.27741 0.155096C7.3163 0.12593 7.35519 0.116211 7.4038 0.116211H9.45519C9.5038 0.116211 9.54269 0.125932 9.58158 0.145376C9.62047 0.164821 9.65936 0.19399 9.6788 0.232879C9.70797 0.271768 9.71769 0.310655 9.71769 0.359266C9.71769 0.407878 9.71769 0.446765 9.69825 0.485654L3.03852 13.7759C3.01908 13.8148 2.98991 13.844 2.95102 13.8732C2.91213 13.9023 2.87324 13.912 2.82463 13.912Z" fill="#8CE605"/>
<path d="M9.19258 13.912H7.07313C7.03424 13.912 6.99536 13.9023 6.95647 13.8829C6.91758 13.8634 6.88841 13.8343 6.86897 13.8051C6.84952 13.7759 6.83008 13.737 6.83008 13.6982C6.83008 13.6593 6.83008 13.6204 6.84952 13.5815L13.5384 0.232879C13.5579 0.19399 13.587 0.164821 13.6162 0.145376C13.6454 0.125932 13.6842 0.116211 13.7231 0.116211H15.8329C15.8717 0.116211 15.9106 0.125932 15.9495 0.145376C15.9884 0.164821 16.0176 0.193986 16.037 0.223153C16.0565 0.25232 16.0759 0.291212 16.0759 0.330101C16.0759 0.36899 16.0759 0.407874 16.0565 0.446763L9.36758 13.7954C9.34813 13.8343 9.31897 13.8634 9.2898 13.8829C9.26063 13.9023 9.23147 13.912 9.19258 13.912Z" fill="#8CE605"/>
<path d="M22.3667 2.50785C22.1528 2.50785 22.0459 2.61479 22.0459 2.82868V12.5412C22.0459 12.7648 22.1626 12.862 22.3667 12.862H23.8834C23.9223 12.8717 23.9709 12.862 24.0098 12.8523C24.0487 12.8426 24.0876 12.8134 24.1167 12.7842C24.1459 12.7551 24.1653 12.7162 24.1848 12.6676C24.1945 12.6287 24.2042 12.5801 24.1945 12.5315V8.59396H30.757V12.5315C30.7473 12.5801 30.757 12.619 30.7667 12.6676C30.7765 12.7065 30.8056 12.7453 30.8348 12.7842C30.864 12.8134 30.9028 12.8426 30.9417 12.8523C30.9806 12.862 31.0292 12.8717 31.0681 12.862H32.5848C32.7987 12.862 32.9056 12.7551 32.9056 12.5412V2.82868C32.9056 2.60507 32.789 2.50785 32.5848 2.50785H31.0778C31.039 2.49812 30.9903 2.50785 30.9515 2.51757C30.9126 2.52729 30.8737 2.55646 30.8445 2.58562C30.8153 2.61479 30.7959 2.65368 30.7765 2.70229C30.7667 2.74118 30.757 2.78979 30.7667 2.8384V6.6884H24.2042V2.8384C24.214 2.78979 24.2042 2.7509 24.1945 2.70229C24.1848 2.6634 24.1556 2.62451 24.1265 2.58562C24.0973 2.55646 24.0584 2.52729 24.0195 2.51757C23.9806 2.50785 23.932 2.49812 23.8931 2.50785H22.3667ZM44.0473 2.50785C43.4542 2.50785 43.0362 2.74118 42.5792 3.63563L37.9806 12.5315C37.8834 12.7259 37.9223 12.8717 38.1653 12.8717H39.9834C40.0515 12.8815 40.1195 12.8717 40.1778 12.8328C40.2362 12.794 40.2848 12.7454 40.3042 12.6773L41.2667 10.7717H47.8584L48.8501 12.6773C48.8695 12.7454 48.9181 12.8037 48.9765 12.8328C49.0348 12.8717 49.1028 12.8815 49.1709 12.8717H50.9501C51.1737 12.8717 51.2126 12.7259 51.1153 12.5315L46.4778 3.63563C46.0112 2.75091 45.5834 2.50785 44.864 2.50785H44.0473ZM44.3584 4.71479C44.3681 4.68563 44.3973 4.65646 44.4167 4.63702C44.4459 4.61757 44.4751 4.60785 44.514 4.60785H44.6015C44.6306 4.60785 44.6695 4.61757 44.6987 4.63702C44.7278 4.65646 44.7473 4.68563 44.757 4.71479L46.9834 9.0509H42.1515L44.3584 4.71479ZM55.957 2.50785C55.7431 2.50785 55.6362 2.61479 55.6362 2.82868V8.95368C55.6362 11.7926 56.7251 12.862 59.564 12.862H65.3292C65.3681 12.8717 65.4167 12.862 65.4556 12.8523C65.4945 12.8426 65.5334 12.8134 65.5626 12.7842C65.5917 12.7551 65.6112 12.7162 65.6306 12.6676C65.6403 12.6287 65.6501 12.5801 65.6403 12.5315V11.0828C65.6501 11.0342 65.6403 10.9953 65.6306 10.9467C65.6209 10.9078 65.5917 10.869 65.5626 10.8301C65.5334 10.8009 65.4945 10.7717 65.4556 10.762C65.4167 10.7523 65.3681 10.7426 65.3292 10.7523H59.6515C58.2126 10.7523 57.7848 10.2953 57.7848 8.72035V2.81896C57.7945 2.77035 57.7848 2.73146 57.7751 2.68285C57.7653 2.64396 57.7362 2.60507 57.707 2.56618C57.6778 2.53702 57.639 2.50785 57.6001 2.49813C57.5612 2.4884 57.5126 2.47868 57.4737 2.4884H55.957V2.50785ZM71.2112 2.50785C71.1528 2.49812 71.0945 2.50785 71.0362 2.52729C70.9778 2.54674 70.9292 2.5759 70.8903 2.62451C70.8515 2.6634 70.8223 2.72173 70.8028 2.78007C70.7834 2.8384 70.7834 2.89674 70.7834 2.95507V12.4245C70.7737 12.4828 70.7834 12.5509 70.8028 12.5995C70.8223 12.6578 70.8515 12.7065 70.8903 12.7551C70.9292 12.794 70.9778 12.8328 71.0362 12.8523C71.0945 12.8717 71.1528 12.8815 71.2112 12.8717H79.5431C81.4098 12.8717 82.0223 11.8801 82.0223 10.3148V9.45924C82.0515 9.08007 81.9737 8.69118 81.7987 8.36063C81.6237 8.02035 81.3709 7.7384 81.0501 7.55368C81.3417 7.34952 81.5751 7.06757 81.7403 6.73701C81.8959 6.40646 81.9737 6.03701 81.9542 5.66757V4.95785C81.9542 3.31479 81.2251 2.51757 79.2903 2.51757H71.2112V2.50785ZM78.6876 8.42868C79.6112 8.42868 79.9028 8.74951 79.9028 9.36201V9.9259C79.9028 10.5481 79.6112 10.8301 78.8626 10.8301H73.1167C72.9903 10.8301 72.932 10.7717 72.932 10.6356V8.42868H78.6876V8.42868ZM72.9417 4.74396C72.9417 4.60785 73.0001 4.54951 73.1265 4.54951H78.8626C79.5917 4.54951 79.9028 4.83146 79.9028 5.43424V5.93979C79.9028 6.5134 79.6209 6.81479 78.6973 6.81479H72.9515V4.74396H72.9417ZM91.3945 2.50785C88.5653 2.50785 87.4667 3.57729 87.4667 6.41618V8.9634C87.4667 11.8023 88.5556 12.8717 91.3945 12.8717H95.7209C98.5695 12.8717 99.6487 11.8023 99.6487 8.9634V6.41618C99.6487 3.57729 98.5695 2.50785 95.7209 2.50785H91.3945ZM89.6153 6.58146C89.6153 5.0259 90.0334 4.56896 91.482 4.56896H95.6431C97.0917 4.56896 97.5098 5.0259 97.5098 6.58146V8.79813C97.5098 10.3537 97.0917 10.8106 95.6431 10.8106H91.482C90.0334 10.8106 89.6153 10.3537 89.6153 8.79813V6.58146ZM105.715 2.50785C105.657 2.49812 105.599 2.50785 105.54 2.52729C105.482 2.54674 105.433 2.5759 105.395 2.62451C105.356 2.6634 105.326 2.72173 105.307 2.78007C105.288 2.8384 105.288 2.89674 105.288 2.95507V12.5509C105.288 12.7745 105.395 12.8717 105.608 12.8717H107.115C107.154 12.8815 107.203 12.8717 107.242 12.862C107.281 12.8523 107.32 12.8231 107.349 12.794C107.378 12.7648 107.397 12.7259 107.417 12.6773C107.426 12.6384 107.436 12.5898 107.426 12.5412V9.59535H111.957L114.174 12.6773C114.261 12.8134 114.329 12.8717 114.563 12.8717H116.371C116.41 12.8717 116.458 12.862 116.488 12.8426C116.526 12.8231 116.556 12.7842 116.575 12.7453C116.595 12.7065 116.604 12.6578 116.595 12.619C116.595 12.5703 116.575 12.5315 116.546 12.5023L114.154 9.36201C115.622 9.08007 116.245 8.0884 116.245 6.39674V5.5509C116.245 3.54812 115.379 2.49813 113.231 2.49813L105.715 2.50785ZM107.436 4.71479C107.436 4.59813 107.495 4.53979 107.621 4.53979H112.813C113.765 4.53979 114.115 4.96757 114.115 5.86201V6.48424C114.115 7.36896 113.765 7.80646 112.813 7.80646H107.446V4.71479H107.436ZM123.147 2.50785C122.292 2.50785 121.883 2.84812 121.883 4.04396V12.5412C121.883 12.7648 121.99 12.862 122.204 12.862H123.672C123.711 12.8717 123.76 12.862 123.799 12.8523C123.838 12.8426 123.876 12.8134 123.906 12.7842C123.935 12.7551 123.954 12.7162 123.974 12.6676C123.983 12.6287 123.993 12.5801 123.983 12.5315V4.8023C123.983 4.69535 124.013 4.65646 124.1 4.65646H124.226C124.265 4.65646 124.295 4.66618 124.333 4.68563C124.363 4.70507 124.392 4.73424 124.411 4.7634L129.642 11.987C130.206 12.7745 130.41 12.862 131.265 12.862H132.471C133.326 12.862 133.735 12.5217 133.735 11.3259V2.82868C133.745 2.78007 133.735 2.74118 133.725 2.69257C133.715 2.65368 133.686 2.61479 133.657 2.5759C133.628 2.54674 133.589 2.51757 133.55 2.50785C133.511 2.49812 133.463 2.4884 133.424 2.49813H131.956C131.917 2.4884 131.868 2.49812 131.829 2.50785C131.79 2.51757 131.751 2.54674 131.722 2.5759C131.693 2.60507 131.674 2.64396 131.654 2.69257C131.645 2.73146 131.635 2.78007 131.645 2.82868V10.5578C131.645 10.6648 131.606 10.7037 131.528 10.7037H131.401C131.363 10.7037 131.324 10.694 131.295 10.6842C131.265 10.6648 131.236 10.6356 131.217 10.6065L126.006 3.38285C125.471 2.62451 125.276 2.50785 124.382 2.50785H123.147V2.50785Z" fill="#1D1D1B"/>
</g>
<defs>
<clipPath id="clip0_9560_236734">
<rect width="134.167" height="14" fill="white" transform="translate(0.0927734)"/>
</clipPath>
</defs>
</svg>
